<?xml version="1.0" encoding="utf-8"?>
<!-- Generator: Adobe Illustrator 28.2.0, SVG Export Plug-In . SVG Version: 6.00 Build 0)  -->
<svg version="1.1" id="Layer_1" xmlns="http://www.w3.org/2000/svg" xmlns:xlink="http://www.w3.org/1999/xlink" x="0px" y="0px"
	 viewBox="0 0 500 500" style="enable-background:new 0 0 500 500;" xml:space="preserve">
<style type="text/css">
	.st0{fill:#00006D;}
</style>
<path class="st0" d="M397.75,106.78h-56.39c-11.07,0-20.04-8.97-20.04-20.04V33.24c0-11.07-8.97-20.04-20.04-20.04H196.68
	c-11.07,0-20.04,8.97-20.04,20.04v53.51c0,11.07-8.97,20.04-20.04,20.04H103.1c-11.07,0-20.04,8.97-20.04,20.04v105.33
	c0,11.07,8.97,20.04,20.04,20.04h57.35c11.07,0,20.04,8.97,20.04,20.04v47.75c0,11.07-8.97,20.04-20.04,20.04H103.1
	c-11.07,0-20.04,8.97-20.04,20.04v106.08c0,11.07,8.97,20.04,20.04,20.04h65.02c11.07,0,20.04-8.97,20.04-20.04v-98.4
	c0-11.07,8.97-20.04,20.04-20.04h96.94c11.07,0,20.04-8.97,20.04-20.04v-55.43c0-11.07,8.97-20.04,20.04-20.04h52.55
	c11.07,0,20.04-8.97,20.04-20.04V126.81C417.79,115.75,408.82,106.78,397.75,106.78z M292.66,242.58H208.2
	c-11.07,0-20.04-8.97-20.04-20.04v-84.22c0-11.07,8.97-20.04,20.04-20.04h84.46c11.07,0,20.04,8.97,20.04,20.04v84.22
	C312.69,233.61,303.72,242.58,292.66,242.58z"/>
</svg>
